<?xml version="1.0" encoding="utf-8"?>
<!-- Generator: Adobe Illustrator 16.0.0, SVG Export Plug-In . SVG Version: 6.00 Build 0)  -->
<!DOCTYPE svg PUBLIC "-//W3C//DTD SVG 1.1//EN" "http://www.w3.org/Graphics/SVG/1.1/DTD/svg11.dtd">
<svg version="1.1" id="Layer_1" xmlns="http://www.w3.org/2000/svg" xmlns:xlink="http://www.w3.org/1999/xlink" x="0px" y="0px"
	 width="100px" height="100px" viewBox="0 0 100 100" enable-background="new 0 0 100 100" xml:space="preserve">
<g>
	<path d="M1.5,50.058c0,26.748,21.756,48.499,48.5,48.499c26.745,0,48.5-21.807,48.5-48.614c0-26.745-21.755-48.5-48.5-48.5
		C23.256,1.443,1.5,23.251,1.5,50.058z M8.35,49.929C8.35,26.965,27.036,8.281,50,8.281c22.965,0,41.648,18.742,41.648,41.777
		c0,22.963-18.684,41.649-41.648,41.649C27.036,91.707,8.35,72.965,8.35,49.929z"/>
	<path d="M27.386,47.928c0.089-0.112,0.177-0.21,0.245-0.278l16.852-16.864c1.278-1.27,3.546-1.27,4.825,0
		c1.306,1.306,1.306,3.516,0,4.821l-11.085,11.09h33.604c1.852,0,3.355,1.499,3.355,3.348c0,1.852-1.504,3.361-3.355,3.361H38.218
		l11.213,11.218c1.306,1.306,1.306,3.519-0.123,4.932c-0.534,0.392-1.271,0.848-2.276,0.848c-0.68,0-1.57-0.115-2.408-0.958
		L27.561,52.382l-0.159-0.171l-0.266-0.35c-0.007-0.008-0.013-0.018-0.021-0.025l-0.309-0.406c-0.016-0.032-0.027-0.07-0.039-0.105
		c-0.22-0.401-0.344-0.843-0.344-1.309C26.424,49.218,26.794,48.497,27.386,47.928z"/>
</g>
<g>
	<path fill="#FFFFFF" d="M0.5,49.058c0,26.748,21.756,48.499,48.5,48.499c26.745,0,48.5-21.807,48.5-48.614
		c0-26.745-21.755-48.5-48.5-48.5C22.256,0.443,0.5,22.251,0.5,49.058z M7.35,48.929C7.35,25.965,26.036,7.281,49,7.281
		c22.965,0,41.648,18.742,41.648,41.777c0,22.963-18.684,41.649-41.648,41.649C26.036,90.707,7.35,71.965,7.35,48.929z"/>
	<path fill="#FFFFFF" d="M26.386,46.928c0.089-0.112,0.177-0.21,0.245-0.278l16.852-16.864c1.278-1.27,3.546-1.27,4.825,0
		c1.306,1.306,1.306,3.516,0,4.821l-11.085,11.09h33.604c1.852,0,3.355,1.499,3.355,3.348c0,1.852-1.504,3.361-3.355,3.361H37.218
		l11.213,11.218c1.306,1.306,1.306,3.519-0.123,4.932c-0.534,0.392-1.271,0.848-2.276,0.848c-0.68,0-1.57-0.115-2.408-0.958
		L26.561,51.382l-0.159-0.171l-0.266-0.349c-0.007-0.009-0.013-0.018-0.021-0.026l-0.309-0.406
		c-0.016-0.032-0.027-0.071-0.039-0.105c-0.22-0.401-0.344-0.843-0.344-1.309C25.424,48.218,25.794,47.497,26.386,46.928z"/>
</g>
</svg>
