<?xml version="1.0" encoding="utf-8"?>
<!-- Generator: Adobe Illustrator 16.0.0, SVG Export Plug-In . SVG Version: 6.00 Build 0)  -->
<!DOCTYPE svg PUBLIC "-//W3C//DTD SVG 1.1//EN" "http://www.w3.org/Graphics/SVG/1.1/DTD/svg11.dtd">
<svg version="1.1" id="Layer_1" xmlns="http://www.w3.org/2000/svg" xmlns:xlink="http://www.w3.org/1999/xlink" x="0px" y="0px"
	 width="100px" height="100px" viewBox="0 0 100 100" enable-background="new 0 0 100 100" xml:space="preserve">
<g>
	<g>
		<path fill="#FFFFFF" d="M43.401,1H5.958C3.224,1,1,3.219,1,5.954v37.438c0,2.739,2.224,4.958,4.958,4.958h37.443
			c2.734,0,4.953-2.219,4.953-4.958V5.954C48.354,3.219,46.136,1,43.401,1z M38.447,38.443h-27.54V10.908h27.54V38.443
			L38.447,38.443z"/>
		<path fill="#FFFFFF" d="M94.051,1H56.608c-2.744,0-4.959,2.219-4.959,4.954v37.438c0,2.739,2.215,4.958,4.959,4.958h37.442
			c2.734,0,4.949-2.219,4.949-4.958V5.954C99,3.219,96.785,1,94.051,1z M89.097,38.443H61.558V10.908h27.539V38.443z"/>
		<path fill="#FFFFFF" d="M43.401,51.65H5.958C3.224,51.65,1,53.874,1,56.608v37.438C1,96.785,3.224,99,5.958,99h37.443
			c2.734,0,4.953-2.22,4.953-4.954V56.608C48.354,53.874,46.136,51.65,43.401,51.65z M38.447,89.093h-27.54V61.558h27.54V89.093
			L38.447,89.093z"/>
		<path fill="#FFFFFF" d="M94.051,51.65H56.608c-2.744,0-4.959,2.224-4.959,4.958v37.438c0,2.739,2.215,4.954,4.959,4.954h37.442
			C96.785,99,99,96.78,99,94.046V56.608C99,53.874,96.785,51.65,94.051,51.65z M89.097,89.093H61.558V61.558h27.539V89.093z"/>
	</g>
</g>
</svg>
