<?xml version="1.0" encoding="utf-8"?>
<!-- Generator: Adobe Illustrator 16.0.0, SVG Export Plug-In . SVG Version: 6.00 Build 0)  -->
<!DOCTYPE svg PUBLIC "-//W3C//DTD SVG 1.1//EN" "http://www.w3.org/Graphics/SVG/1.1/DTD/svg11.dtd">
<svg version="1.1" id="Layer_1" xmlns="http://www.w3.org/2000/svg" xmlns:xlink="http://www.w3.org/1999/xlink" x="0px" y="0px"
	 width="100px" height="100px" viewBox="0 0 100 100" enable-background="new 0 0 100 100" xml:space="preserve">
<g>
	<g>
		<path fill="#FFFFFF" d="M83.921,37.662h-6.742v-6.743c0-1.192-0.97-2.16-2.163-2.16c-1.189,0-2.161,0.968-2.161,2.16v6.805h-6.745
			c-1.191,0-2.159,0.968-2.159,2.16c0,1.191,0.968,2.164,2.159,2.164h6.806v6.743c0,1.192,0.971,2.16,2.162,2.16
			s2.164-0.968,2.164-2.16v-6.743h6.801c1.194,0,2.161-0.973,2.161-2.164C86.203,38.636,85.202,37.662,83.921,37.662z"/>
		<path fill="#FFFFFF" d="M75.077,15.663c-13.19,0-23.923,10.732-23.923,23.922c0,13.192,10.732,23.923,23.923,23.923
			S99,52.777,99,39.585C99,26.395,88.268,15.663,75.077,15.663z M75.077,59.12c-10.774,0-19.535-8.762-19.535-19.535
			c0-10.77,8.761-19.535,19.535-19.535s19.535,8.765,19.535,19.535C94.612,50.358,85.852,59.12,75.077,59.12z"/>
	</g>
	<g>
		<g>
			<path fill="#FFFFFF" d="M48.053,39.683c0-10.253,6.024-19.097,14.725-23.192c-0.317-2.509-1.235-5.138-4.17-5.696
				c-3.32-0.619-3.705,0.318-5.327,0.089c-1.621-0.234-3.55-4.432-6.562-4.432l-6.254,1.001c-3.013,0-2.549,0.926-4.17,1.16
				c-1.621,0.23,0.329-0.234-4.537,0.694c-4.863,0.927-6.581,7.182-6.813,9.497c-0.232,2.316-0.289,8.827-0.135,12.303
				c0.463,2.085-1.158,2.085-1.158,2.085c-2.915-0.188-1.604,8.896-1.604,8.896c0.419,2.238-0.151,3.351,4.166,5.085
				c2.057,5.857,7.287,8.812,7.287,8.812s0.258,3.757,0.34,6.432c-0.439-0.221,1.406,6.835-12,8.813
				C8.433,73.208,5.865,77.549,3.338,79.967c-2.526,2.417-2.334,13.58-2.334,13.58h86.334c0,0-0.549-11.163-3.077-13.58
				c-2.528-2.418-5.281-6.759-18.687-8.736c-13.408-1.979-11.031-8.843-11.122-9.258c0.018-0.808,0.296-3.612,0.426-4.883
				C50.644,52.519,48.053,46.405,48.053,39.683z"/>
		</g>
	</g>
</g>
</svg>
