<?xml version="1.0" encoding="utf-8"?>
<!-- Generator: Adobe Illustrator 16.0.0, SVG Export Plug-In . SVG Version: 6.00 Build 0)  -->
<!DOCTYPE svg PUBLIC "-//W3C//DTD SVG 1.1//EN" "http://www.w3.org/Graphics/SVG/1.1/DTD/svg11.dtd">
<svg version="1.1" id="Layer_1" xmlns="http://www.w3.org/2000/svg" xmlns:xlink="http://www.w3.org/1999/xlink" x="0px" y="0px"
	 width="50px" height="50px" viewBox="0 0 50 50" enable-background="new 0 0 50 50" xml:space="preserve">
<g opacity="0.8">
	<path fill="#05630E" d="M25,0.5C11.49,0.5,0.5,11.49,0.5,25S11.49,49.5,25,49.5c13.506,0,24.5-10.991,24.5-24.5S38.506,0.5,25,0.5z
		 M25,44.811C14.074,44.811,5.19,35.924,5.19,25C5.19,14.077,14.074,5.192,25,5.192c10.922,0,19.807,8.885,19.807,19.807
		C44.807,35.924,35.922,44.811,25,44.811z"/>
	<path fill="#05630E" d="M33.023,16.681L21.357,28.348l-4.382-4.384c-0.886-0.886-2.434-0.886-3.317,0
		c-0.915,0.915-0.915,2.403,0,3.317l6.041,6.037c0.445,0.445,1.033,0.688,1.658,0.688c0.628,0,1.217-0.243,1.662-0.69l13.32-13.321
		c0.914-0.916,0.914-2.402,0-3.313C35.454,15.794,33.902,15.795,33.023,16.681z"/>
</g>
</svg>
