<?xml version="1.0" encoding="utf-8"?>
<!-- Generator: Adobe Illustrator 16.0.0, SVG Export Plug-In . SVG Version: 6.00 Build 0)  -->
<!DOCTYPE svg PUBLIC "-//W3C//DTD SVG 1.1//EN" "http://www.w3.org/Graphics/SVG/1.1/DTD/svg11.dtd">
<svg version="1.1" id="Layer_1" xmlns="http://www.w3.org/2000/svg" xmlns:xlink="http://www.w3.org/1999/xlink" x="0px" y="0px"
	 width="100px" height="100px" viewBox="0 0 100 100" enable-background="new 0 0 100 100" xml:space="preserve">
<g>
	<polygon fill="#FFFFFF" points="20.293,25.617 20.293,53.726 48.403,81.84 99,31.241 99,3.13 48.403,53.726 	"/>
	<g>
		<path fill="#FFFFFF" d="M80.574,82.519c0,2.638-2.115,4.783-4.715,4.783H15.287c-2.604,0-4.717-2.146-4.717-4.783V22.081
			c0-2.637,2.113-4.783,4.717-4.783h55.766l8.897-8.897c-1.305-0.397-2.661-0.674-4.091-0.674H15.287C7.409,7.727,1,14.167,1,22.081
			v60.438c0,7.91,6.409,14.352,14.287,14.352h60.572c7.875,0,14.288-6.441,14.288-14.352V52.046l-9.573,9.572V82.519z"/>
	</g>
</g>
</svg>
