<?xml version="1.0" encoding="utf-8"?>
<!-- Generator: Adobe Illustrator 16.0.0, SVG Export Plug-In . SVG Version: 6.00 Build 0)  -->
<!DOCTYPE svg PUBLIC "-//W3C//DTD SVG 1.1//EN" "http://www.w3.org/Graphics/SVG/1.1/DTD/svg11.dtd">
<svg version="1.1" id="Layer_1" xmlns="http://www.w3.org/2000/svg" xmlns:xlink="http://www.w3.org/1999/xlink" x="0px" y="0px"
	 width="374px" height="73px" viewBox="0 0 374 73" enable-background="new 0 0 374 73" xml:space="preserve">
<g opacity="0.8">
	<path fill="#FFFFFF" d="M33.738,50.466c-0.593-0.662-1.193-1.214-1.648-1.865c-0.914-1.3-0.38-2.587,1.186-2.93
		c0.54-0.115,1.109-0.078,1.659-0.154c0.169-0.025,0.414-0.148,0.468-0.284c1.91-4.786,3.798-9.58,5.706-14.412
		c-0.171-0.082-0.308-0.157-0.451-0.214c-1.44-0.569-2.884-1.132-4.324-1.709c-0.304-0.122-0.498-0.148-0.789,0.126
		c-0.841,0.798-1.783,0.54-2.874-0.12c-0.731-0.44-0.926-1.304-0.572-2.207c1.428-3.64,2.86-7.278,4.302-10.913
		c0.434-1.094,1.345-1.458,2.458-1.068c0.955,0.336,1.675,0.824,1.679,1.972c0.001,0.125,0.265,0.298,0.438,0.368
		c4.037,1.6,8.078,3.189,12.118,4.781c0.922,0.363,1.846,0.723,2.764,1.095c0.271,0.109,0.449,0.116,0.699-0.123
		c0.884-0.852,1.783-0.544,2.873,0.071c0.74,0.417,0.954,1.353,0.603,2.25c-1.424,3.622-2.85,7.243-4.282,10.861
		c-0.444,1.119-1.367,1.497-2.491,1.103c-0.963-0.34-1.664-0.847-1.66-1.986c0-0.094-0.142-0.231-0.249-0.276
		c-1.638-0.655-3.282-1.297-4.963-1.959c-0.082,0.179-0.159,0.334-0.223,0.497c-1.804,4.577-3.602,9.154-5.42,13.724
		c-0.161,0.407-0.088,0.612,0.216,0.912c0.455,0.447,0.893,0.953,1.183,1.514c0.569,1.096,0.056,2.197-1.144,2.467
		c-0.83,0.186-1.699,0.204-2.677,0.31c-0.212,0.468-0.527,1.076-0.773,1.71c-0.968,2.503-2.016,4.98-2.833,7.529
		c-0.482,1.509-0.583,3.14-0.855,4.714c-0.046,0.265-0.086,0.531-0.128,0.797l30.172-4.574l12.647-32.309L54.896,3.053L20.592,8.254
		L7.944,40.562l19.038,23.831c0.047-0.058,0.092-0.118,0.14-0.177C30.488,60.132,32.065,55.233,33.738,50.466z M63.725,24.523
		c0.49,0.198,0.935,0.512,1.402,0.773c0.114,0.265,0.23,0.529,0.344,0.794c-0.113,0.483-0.166,0.991-0.343,1.452
		c-1.37,3.524-2.76,7.041-4.154,10.555c-0.358,0.904-1.073,1.368-1.932,1.194c-1.177-0.237-2.072-0.733-2.158-1.779
		c-0.023-0.31,0.029-0.653,0.142-0.943c1.432-3.674,2.879-7.343,4.332-11.008C61.767,24.53,62.703,24.109,63.725,24.523z
		 M28.396,27.286c-0.847-0.297-1.632-0.668-1.695-1.717c-0.019-0.311,0.043-0.651,0.158-0.942c1.42-3.642,2.854-7.278,4.297-10.912
		c0.122-0.307,0.328-0.581,0.495-0.87c0.298-0.129,0.596-0.259,0.892-0.388c0.502,0.121,1.025,0.19,1.5,0.374
		c1.101,0.426,1.481,1.344,1.049,2.449c-1.125,2.868-2.257,5.732-3.387,8.599c-0.31,0.788-0.612,1.579-0.933,2.361
		C30.348,27.273,29.455,27.659,28.396,27.286z"/>
</g>
<g>
	<path fill="#FFFFFF" d="M108.061,50.416l-2.915-6.771h-13.14l-2.915,6.771h-7.444L95.19,19.068h6.772l13.543,31.348H108.061z
		 M98.598,28.396L94.652,37.5h7.848L98.598,28.396z"/>
	<path fill="#FFFFFF" d="M125.237,42.32c1.166,1.451,2.736,2.176,4.709,2.176s3.535-0.725,4.686-2.176
		c1.151-1.449,1.727-3.43,1.727-5.941V19.068h6.996v17.535c0,4.545-1.255,8.036-3.767,10.471c-2.511,2.438-5.726,3.654-9.642,3.654
		c-3.917,0-7.138-1.225-9.665-3.676c-2.527-2.451-3.79-5.936-3.79-10.45V19.068h6.996v17.311
		C123.488,38.891,124.071,40.871,125.237,42.32z"/>
	<path fill="#FFFFFF" d="M163.669,44.227c3.438,0,6.248-1.359,8.431-4.08l4.484,4.619c-3.558,4.006-7.751,6.008-12.579,6.008
		c-4.829,0-8.805-1.523-11.929-4.574c-3.125-3.049-4.687-6.898-4.687-11.547c0-4.649,1.592-8.528,4.776-11.638
		c3.184-3.109,7.078-4.664,11.682-4.664c5.142,0,9.447,1.958,12.916,5.875l-4.35,4.933c-2.213-2.75-4.963-4.126-8.252-4.126
		c-2.631,0-4.881,0.86-6.749,2.579c-1.869,1.72-2.803,4.036-2.803,6.951s0.882,5.254,2.646,7.02
		C159.02,43.346,161.158,44.227,163.669,44.227z"/>
	<path fill="#FFFFFF" d="M194.03,25.122v25.294h-6.996V25.122h-8.879v-6.054h24.755v6.054H194.03z"/>
	<path fill="#FFFFFF" d="M206.676,19.068h6.996v31.348h-6.996V19.068z"/>
	<path fill="#FFFFFF" d="M246.409,46.088c-3.169,3.094-7.071,4.641-11.705,4.641c-4.635,0-8.536-1.547-11.705-4.641
		s-4.753-6.943-4.753-11.548c0-4.604,1.584-8.454,4.753-11.548s7.07-4.642,11.705-4.642c4.634,0,8.536,1.547,11.705,4.642
		s4.754,6.944,4.754,11.548C251.163,39.145,249.578,42.994,246.409,46.088z M244.033,34.562c0-2.795-0.897-5.18-2.691-7.153
		c-1.794-1.974-3.999-2.96-6.615-2.96c-2.617,0-4.821,0.986-6.615,2.96c-1.794,1.973-2.691,4.357-2.691,7.153
		c0,2.796,0.897,5.173,2.691,7.131c1.794,1.959,3.998,2.938,6.615,2.938c2.616,0,4.821-0.979,6.615-2.938
		C243.136,39.735,244.033,37.358,244.033,34.562z"/>
	<path fill="#FFFFFF" d="M277.666,19.068h6.996v31.348h-6.996l-14.934-19.643v19.643h-6.996V19.068h6.546l15.383,20.181V19.068z"/>
</g>
<g opacity="0.6">
	<path fill="#FFFFFF" d="M297.857,47.445c1.035,0,1.928-0.174,2.676-0.523c0.746-0.348,1.527-0.904,2.344-1.668l1.936,1.986
		c-1.885,2.09-4.174,3.135-6.865,3.135s-4.926-0.867-6.701-2.6c-1.773-1.732-2.662-3.922-2.662-6.572
		c0-2.649,0.906-4.857,2.715-6.623s4.092-2.649,6.852-2.649s5.064,1.019,6.916,3.057l-1.91,2.089
		c-0.85-0.815-1.652-1.384-2.406-1.707c-0.756-0.322-1.645-0.484-2.662-0.484c-1.801,0-3.312,0.582-4.535,1.745
		c-1.223,1.164-1.834,2.649-1.834,4.458c0,1.808,0.607,3.319,1.82,4.534C294.754,46.838,296.193,47.445,297.857,47.445z"/>
	<path fill="#FFFFFF" d="M307.717,50.17V32.364h3.006v7.718h8.84v-7.718h3.006V50.17h-3.006v-7.285h-8.84v7.285H307.717z"/>
	<path fill="#FFFFFF" d="M329.268,46.119l-1.783,4.051h-3.209l7.846-17.806h3.209l7.848,17.806h-3.211l-1.783-4.051H329.268z
		 M336.961,43.344l-3.234-7.337l-3.236,7.337H336.961z"/>
	<path fill="#FFFFFF" d="M344.883,32.364h3.008V50.17h-3.008V32.364z"/>
	<path fill="#FFFFFF" d="M365.416,32.364h3.006V50.17h-3.26l-10.088-12.992V50.17h-3.008V32.364h3.008l10.342,13.298V32.364z"/>
</g>
<g>
	<path fill="#FFFFFF" d="M83.748,65.428l-0.939,2.133h-1.69l4.132-9.377h1.69l4.131,9.377h-1.69l-0.939-2.133H83.748z
		 M87.799,63.967l-1.704-3.865l-1.704,3.865H87.799z"/>
	<path fill="#FFFFFF" d="M95.244,67.561v-9.377h1.583v4.064h4.655v-4.064h1.583v9.377h-1.583v-3.836h-4.655v3.836H95.244z"/>
	<path fill="#FFFFFF" d="M105.949,70.404c-0.653,0-1.243-0.236-1.771-0.711l0.684-1.221c0.313,0.295,0.637,0.443,0.973,0.443
		c0.335,0,0.608-0.121,0.818-0.361c0.21-0.242,0.315-0.506,0.315-0.793c0-0.125-0.961-2.57-2.884-7.338h1.61l2.133,5.26l2.133-5.26
		h1.61l-3.461,8.479c-0.206,0.465-0.501,0.832-0.885,1.1C106.839,70.271,106.414,70.404,105.949,70.404z"/>
	<path fill="#FFFFFF" d="M116.171,60.316c0.957,0,1.775,0.332,2.455,0.994c0.68,0.66,1.02,1.541,1.02,2.643
		c0,1.1-0.338,1.994-1.013,2.682c-0.675,0.689-1.462,1.033-2.361,1.033c-0.898,0-1.706-0.393-2.421-1.18v3.676h-1.502v-9.74h1.502
		v1.248C114.44,60.77,115.214,60.316,116.171,60.316z M113.823,64.006c0,0.68,0.206,1.236,0.617,1.67s0.912,0.65,1.502,0.65
		s1.104-0.215,1.543-0.643c0.438-0.43,0.657-0.986,0.657-1.67c0-0.686-0.215-1.252-0.644-1.705
		c-0.429-0.451-0.943-0.678-1.542-0.678c-0.6,0-1.105,0.227-1.516,0.678C114.029,62.762,113.823,63.326,113.823,64.006z"/>
	<path fill="#FFFFFF" d="M127.601,64.65h-5.594c0.036,0.518,0.273,0.938,0.711,1.254c0.438,0.318,0.939,0.477,1.502,0.477
		c0.895,0,1.574-0.281,2.039-0.846l0.859,0.939c-0.77,0.797-1.771,1.193-3.005,1.193c-1.002,0-1.854-0.332-2.556-0.998
		c-0.702-0.668-1.053-1.561-1.053-2.684s0.358-2.016,1.073-2.676c0.715-0.662,1.558-0.994,2.529-0.994
		c0.97,0,1.795,0.293,2.475,0.879s1.02,1.393,1.02,2.422V64.65z M122.006,63.469h4.092c0-0.598-0.188-1.059-0.563-1.381
		s-0.838-0.482-1.389-0.482c-0.55,0-1.044,0.168-1.482,0.502C122.226,62.443,122.006,62.896,122.006,63.469z"/>
	<path fill="#FFFFFF" d="M132.59,61.832c-0.742,0-1.301,0.242-1.677,0.725c-0.375,0.484-0.563,1.133-0.563,1.945v3.059h-1.502
		v-7.137h1.502v1.436c0.242-0.447,0.57-0.812,0.986-1.1c0.416-0.287,0.856-0.434,1.321-0.443l0.013,1.516
		C132.644,61.832,132.617,61.832,132.59,61.832z"/>
	<path fill="#FFFFFF" d="M135.273,67.561h-1.502v-9.953h1.502V67.561z"/>
	<path fill="#FFFFFF" d="M143.685,64.65h-5.594c0.036,0.518,0.273,0.938,0.711,1.254c0.438,0.318,0.939,0.477,1.502,0.477
		c0.895,0,1.574-0.281,2.039-0.846l0.859,0.939c-0.77,0.797-1.771,1.193-3.005,1.193c-1.002,0-1.854-0.332-2.556-0.998
		c-0.702-0.668-1.053-1.561-1.053-2.684s0.358-2.016,1.073-2.676c0.715-0.662,1.558-0.994,2.529-0.994
		c0.97,0,1.795,0.293,2.475,0.879s1.02,1.393,1.02,2.422V64.65z M138.09,63.469h4.092c0-0.598-0.188-1.059-0.563-1.381
		s-0.838-0.482-1.389-0.482c-0.55,0-1.044,0.168-1.482,0.502C138.31,62.443,138.09,62.896,138.09,63.469z"/>
	<path fill="#FFFFFF" d="M145.482,66.648c-0.671-0.68-1.006-1.574-1.006-2.682c0-1.109,0.344-1.996,1.033-2.656
		c0.688-0.662,1.509-0.994,2.461-0.994c0.953,0,1.719,0.402,2.301,1.207v-3.916h1.502v9.953h-1.502v-1.072
		c-0.555,0.787-1.364,1.18-2.428,1.18C146.939,67.668,146.152,67.328,145.482,66.648z M145.978,64.025
		c0,0.686,0.219,1.242,0.658,1.672c0.438,0.428,0.952,0.643,1.542,0.643s1.091-0.217,1.502-0.65c0.411-0.434,0.617-0.99,0.617-1.67
		s-0.206-1.248-0.617-1.703c-0.412-0.457-0.917-0.686-1.516-0.686s-1.113,0.229-1.542,0.686
		C146.193,62.771,145.978,63.342,145.978,64.025z"/>
	<path fill="#FFFFFF" d="M160.144,60.424v6.225c0,1.262-0.342,2.207-1.026,2.838c-0.685,0.631-1.563,0.945-2.636,0.945
		s-2.043-0.336-2.911-1.006l0.711-1.141c0.698,0.527,1.402,0.791,2.113,0.791c0.711,0,1.274-0.184,1.69-0.549
		c0.416-0.367,0.624-0.953,0.624-1.758v-0.912c-0.224,0.42-0.543,0.756-0.959,1.006c-0.416,0.25-0.883,0.375-1.402,0.375
		c-0.948,0-1.726-0.33-2.334-0.992c-0.608-0.662-0.912-1.484-0.912-2.469c0-0.982,0.304-1.807,0.912-2.467
		c0.608-0.662,1.384-0.994,2.328-0.994c0.943,0,1.71,0.389,2.3,1.168v-1.061H160.144z M154.577,63.717
		c0,0.586,0.181,1.092,0.543,1.518c0.362,0.424,0.849,0.637,1.462,0.637c0.612,0,1.109-0.205,1.489-0.617
		c0.38-0.412,0.57-0.924,0.57-1.537c0-0.611-0.192-1.131-0.577-1.555c-0.385-0.426-0.881-0.639-1.489-0.639
		c-0.608,0-1.093,0.221-1.455,0.658C154.758,62.619,154.577,63.133,154.577,63.717z"/>
	<path fill="#FFFFFF" d="M168.556,64.65h-5.594c0.036,0.518,0.273,0.938,0.711,1.254c0.438,0.318,0.939,0.477,1.502,0.477
		c0.895,0,1.574-0.281,2.039-0.846l0.859,0.939c-0.77,0.797-1.771,1.193-3.005,1.193c-1.002,0-1.854-0.332-2.556-0.998
		c-0.702-0.668-1.053-1.561-1.053-2.684s0.358-2.016,1.073-2.676c0.715-0.662,1.558-0.994,2.529-0.994
		c0.97,0,1.795,0.293,2.475,0.879s1.02,1.393,1.02,2.422V64.65z M162.961,63.469h4.092c0-0.598-0.188-1.059-0.563-1.381
		s-0.838-0.482-1.389-0.482c-0.55,0-1.044,0.168-1.482,0.502C163.181,62.443,162.961,62.896,162.961,63.469z"/>
	<path fill="#FFFFFF" d="M173.545,61.832c-0.742,0-1.301,0.242-1.677,0.725c-0.375,0.484-0.563,1.133-0.563,1.945v3.059h-1.502
		v-7.137h1.502v1.436c0.242-0.447,0.57-0.812,0.986-1.1c0.416-0.287,0.856-0.434,1.321-0.443l0.013,1.516
		C173.599,61.832,173.572,61.832,173.545,61.832z"/>
	<path fill="#FFFFFF" d="M179.247,56.682h1.342l-5.809,12.449h-1.342L179.247,56.682z"/>
	<path fill="#FFFFFF" d="M183.418,59.66v2.574h4.159v1.463h-4.159v3.863h-1.583v-9.377h6.251l-0.014,1.477H183.418z"/>
	<path fill="#FFFFFF" d="M194.808,67.561h-1.368v-0.951c-0.59,0.705-1.382,1.059-2.375,1.059c-0.742,0-1.357-0.209-1.844-0.631
		c-0.488-0.42-0.731-0.98-0.731-1.684c0-0.701,0.259-1.227,0.778-1.576c0.519-0.348,1.221-0.523,2.106-0.523h1.945v-0.268
		c0-0.947-0.528-1.422-1.583-1.422c-0.662,0-1.351,0.242-2.066,0.725l-0.671-0.939c0.868-0.688,1.852-1.033,2.952-1.033
		c0.84,0,1.527,0.213,2.059,0.639c0.532,0.424,0.798,1.092,0.798,2.004V67.561z M193.305,64.904v-0.604h-1.69
		c-1.083,0-1.624,0.34-1.624,1.02c0,0.35,0.134,0.615,0.403,0.799c0.268,0.184,0.642,0.275,1.12,0.275
		c0.478,0,0.896-0.135,1.254-0.402C193.126,65.723,193.305,65.361,193.305,64.904z"/>
	<path fill="#FFFFFF" d="M200.321,60.316c0.957,0,1.775,0.332,2.455,0.994c0.68,0.66,1.02,1.541,1.02,2.643
		c0,1.1-0.338,1.994-1.013,2.682c-0.675,0.689-1.462,1.033-2.361,1.033c-0.898,0-1.706-0.393-2.421-1.18v1.072h-1.502v-9.953H198
		v4.064C198.59,60.77,199.364,60.316,200.321,60.316z M197.973,64.006c0,0.68,0.206,1.236,0.617,1.67s0.912,0.65,1.502,0.65
		s1.104-0.215,1.543-0.643c0.438-0.43,0.657-0.986,0.657-1.67c0-0.686-0.215-1.252-0.644-1.705
		c-0.429-0.451-0.943-0.678-1.542-0.678c-0.6,0-1.105,0.227-1.516,0.678C198.179,62.762,197.973,63.326,197.973,64.006z"/>
	<path fill="#FFFFFF" d="M208.853,61.832c-0.742,0-1.301,0.242-1.677,0.725c-0.375,0.484-0.563,1.133-0.563,1.945v3.059h-1.502
		v-7.137h1.502v1.436c0.242-0.447,0.57-0.812,0.986-1.1c0.416-0.287,0.856-0.434,1.321-0.443l0.013,1.516
		C208.906,61.832,208.879,61.832,208.853,61.832z"/>
	<path fill="#FFFFFF" d="M210.127,59.002c-0.188-0.188-0.282-0.41-0.282-0.67s0.094-0.482,0.282-0.672
		c0.188-0.188,0.411-0.281,0.67-0.281s0.483,0.094,0.671,0.281c0.188,0.189,0.282,0.412,0.282,0.672s-0.094,0.482-0.282,0.67
		s-0.412,0.281-0.671,0.281S210.315,59.189,210.127,59.002z M211.536,67.561h-1.502v-7.137h1.502V67.561z"/>
	<path fill="#FFFFFF" d="M216.472,67.668c-0.993,0-1.847-0.338-2.562-1.012c-0.716-0.676-1.073-1.559-1.073-2.65
		c0-1.09,0.373-1.979,1.12-2.662c0.747-0.686,1.657-1.027,2.73-1.027s1.98,0.371,2.723,1.113l-0.885,1.088
		c-0.617-0.537-1.239-0.805-1.865-0.805s-1.169,0.207-1.63,0.623c-0.461,0.416-0.691,0.953-0.691,1.609
		c0,0.658,0.228,1.215,0.684,1.67c0.456,0.457,1.017,0.686,1.684,0.686c0.666,0,1.294-0.305,1.885-0.912l0.885,0.965
		C218.609,67.23,217.608,67.668,216.472,67.668z"/>
	<path fill="#FFFFFF" d="M228.223,67.561h-4.105v-9.377h3.649c0.635,0,1.183,0.076,1.643,0.229s0.803,0.357,1.026,0.617
		c0.429,0.482,0.644,1.029,0.644,1.637c0,0.732-0.233,1.279-0.698,1.637c-0.17,0.125-0.286,0.203-0.349,0.234
		c-0.063,0.031-0.174,0.082-0.335,0.154c0.581,0.125,1.044,0.387,1.388,0.785s0.517,0.893,0.517,1.482
		c0,0.652-0.224,1.229-0.67,1.73C230.405,67.271,229.502,67.561,228.223,67.561z M225.701,62.074h2.012
		c1.145,0,1.717-0.389,1.717-1.166c0-0.447-0.139-0.77-0.416-0.967c-0.277-0.197-0.707-0.295-1.288-0.295h-2.025V62.074z
		 M225.701,66.1h2.481c0.582,0,1.026-0.092,1.335-0.275s0.463-0.531,0.463-1.041c0-0.83-0.667-1.246-1.999-1.246h-2.28V66.1z"/>
	<path fill="#FFFFFF" d="M234.474,67.561h-1.502v-9.953h1.502V67.561z"/>
	<path fill="#FFFFFF" d="M242.215,66.602c-0.715,0.711-1.61,1.066-2.683,1.066c-1.073,0-1.967-0.355-2.683-1.066
		c-0.716-0.711-1.073-1.58-1.073-2.609c0-1.027,0.357-1.898,1.073-2.609c0.715-0.711,1.61-1.066,2.683-1.066
		c1.073,0,1.968,0.355,2.683,1.066s1.073,1.582,1.073,2.609C243.288,65.021,242.93,65.891,242.215,66.602z M237.916,65.676
		c0.425,0.434,0.963,0.65,1.616,0.65s1.192-0.217,1.617-0.65s0.637-0.994,0.637-1.684c0-0.688-0.212-1.25-0.637-1.684
		s-0.964-0.65-1.617-0.65s-1.191,0.217-1.616,0.65s-0.637,0.996-0.637,1.684C237.278,64.682,237.491,65.242,237.916,65.676z"/>
	<path fill="#FFFFFF" d="M247.755,67.668c-0.993,0-1.847-0.338-2.562-1.012c-0.716-0.676-1.073-1.559-1.073-2.65
		c0-1.09,0.373-1.979,1.12-2.662c0.747-0.686,1.657-1.027,2.73-1.027s1.98,0.371,2.723,1.113l-0.885,1.088
		c-0.617-0.537-1.239-0.805-1.865-0.805s-1.169,0.207-1.63,0.623c-0.461,0.416-0.691,0.953-0.691,1.609
		c0,0.658,0.228,1.215,0.684,1.67c0.456,0.457,1.017,0.686,1.684,0.686c0.666,0,1.294-0.305,1.885-0.912l0.885,0.965
		C249.892,67.23,248.891,67.668,247.755,67.668z"/>
	<path fill="#FFFFFF" d="M253.416,67.561h-1.502v-9.953h1.502v5.85l2.897-3.033h1.931l-2.709,2.83l2.912,4.307h-1.826l-2.119-3.125
		l-1.087,1.1V67.561z"/>
	<path fill="#FFFFFF" d="M262.471,67.668c-0.992,0-1.848-0.338-2.562-1.012c-0.715-0.676-1.072-1.559-1.072-2.65
		c0-1.09,0.373-1.979,1.119-2.662c0.746-0.686,1.656-1.027,2.73-1.027c1.072,0,1.98,0.371,2.723,1.113l-0.885,1.088
		c-0.617-0.537-1.238-0.805-1.865-0.805c-0.625,0-1.17,0.207-1.629,0.623c-0.461,0.416-0.691,0.953-0.691,1.609
		c0,0.658,0.229,1.215,0.684,1.67c0.457,0.457,1.018,0.686,1.684,0.686s1.295-0.305,1.885-0.912l0.887,0.965
		C264.607,67.23,263.605,67.668,262.471,67.668z"/>
	<path fill="#FFFFFF" d="M268.131,63.697v3.863h-1.502v-9.939h1.502v4.104c0.215-0.438,0.539-0.781,0.973-1.031
		c0.434-0.252,0.902-0.377,1.402-0.377c0.805,0,1.455,0.246,1.951,0.738c0.498,0.492,0.746,1.203,0.746,2.133v4.373h-1.504v-3.916
		c0-1.314-0.545-1.973-1.637-1.973c-0.518,0-0.969,0.172-1.354,0.516C268.324,62.533,268.131,63.035,268.131,63.697z"/>
	<path fill="#FFFFFF" d="M280.674,67.561h-1.367v-0.951c-0.59,0.705-1.383,1.059-2.375,1.059c-0.742,0-1.357-0.209-1.844-0.631
		c-0.488-0.42-0.732-0.98-0.732-1.684c0-0.701,0.26-1.227,0.779-1.576c0.518-0.348,1.221-0.523,2.105-0.523h1.945v-0.268
		c0-0.947-0.527-1.422-1.582-1.422c-0.662,0-1.352,0.242-2.066,0.725l-0.672-0.939c0.867-0.688,1.852-1.033,2.951-1.033
		c0.842,0,1.527,0.213,2.061,0.639c0.531,0.424,0.797,1.092,0.797,2.004V67.561z M279.172,64.904v-0.604h-1.689
		c-1.082,0-1.623,0.34-1.623,1.02c0,0.35,0.133,0.615,0.402,0.799c0.268,0.184,0.641,0.275,1.119,0.275s0.896-0.135,1.254-0.402
		C278.992,65.723,279.172,65.361,279.172,64.904z"/>
	<path fill="#FFFFFF" d="M282.459,59.002c-0.188-0.188-0.283-0.41-0.283-0.67s0.096-0.482,0.283-0.672
		c0.188-0.188,0.41-0.281,0.67-0.281s0.482,0.094,0.672,0.281c0.188,0.189,0.281,0.412,0.281,0.672s-0.094,0.482-0.281,0.67
		c-0.189,0.188-0.412,0.281-0.672,0.281S282.646,59.189,282.459,59.002z M283.867,67.561h-1.502v-7.137h1.502V67.561z"/>
	<path fill="#FFFFFF" d="M287.141,63.697v3.863h-1.502v-7.137h1.502v1.301c0.24-0.438,0.574-0.781,1-1.031
		c0.424-0.252,0.883-0.377,1.375-0.377c0.805,0,1.455,0.246,1.951,0.738s0.744,1.203,0.744,2.133v4.373h-1.502v-3.916
		c0-1.314-0.547-1.973-1.637-1.973c-0.52,0-0.971,0.172-1.355,0.516C287.332,62.533,287.141,63.035,287.141,63.697z"/>
	<path fill="#FFFFFF" d="M298.717,65.428l-0.939,2.133h-1.689l4.131-9.377h1.691l4.131,9.377h-1.689l-0.939-2.133H298.717z
		 M302.768,63.967l-1.703-3.865l-1.703,3.865H302.768z"/>
	<path fill="#FFFFFF" d="M310.549,60.316c0.957,0,1.775,0.332,2.455,0.994c0.68,0.66,1.02,1.541,1.02,2.643
		c0,1.1-0.338,1.994-1.014,2.682c-0.674,0.689-1.461,1.033-2.359,1.033c-0.9,0-1.707-0.393-2.422-1.18v3.676h-1.502v-9.74h1.502
		v1.248C308.818,60.77,309.592,60.316,310.549,60.316z M308.201,64.006c0,0.68,0.205,1.236,0.617,1.67s0.912,0.65,1.502,0.65
		c0.592,0,1.105-0.215,1.543-0.643c0.438-0.43,0.658-0.986,0.658-1.67c0-0.686-0.215-1.252-0.645-1.705
		c-0.43-0.451-0.943-0.678-1.543-0.678s-1.104,0.227-1.516,0.678C308.406,62.762,308.201,63.326,308.201,64.006z"/>
	<path fill="#FFFFFF" d="M319.162,60.316c0.955,0,1.773,0.332,2.455,0.994c0.678,0.66,1.018,1.541,1.018,2.643
		c0,1.1-0.336,1.994-1.012,2.682c-0.676,0.689-1.463,1.033-2.361,1.033s-1.705-0.393-2.422-1.18v3.676h-1.502v-9.74h1.502v1.248
		C317.432,60.77,318.205,60.316,319.162,60.316z M316.814,64.006c0,0.68,0.205,1.236,0.617,1.67c0.41,0.434,0.912,0.65,1.502,0.65
		s1.104-0.215,1.543-0.643c0.438-0.43,0.656-0.986,0.656-1.67c0-0.686-0.215-1.252-0.643-1.705c-0.43-0.451-0.945-0.678-1.543-0.678
		c-0.6,0-1.105,0.227-1.516,0.678C317.02,62.762,316.814,63.326,316.814,64.006z"/>
	<path fill="#FFFFFF" d="M325.453,67.561h-1.502v-9.953h1.502V67.561z"/>
	<path fill="#FFFFFF" d="M327.316,59.002c-0.188-0.188-0.281-0.41-0.281-0.67s0.094-0.482,0.281-0.672
		c0.188-0.188,0.412-0.281,0.672-0.281c0.258,0,0.482,0.094,0.67,0.281c0.188,0.189,0.281,0.412,0.281,0.672
		s-0.094,0.482-0.281,0.67s-0.412,0.281-0.67,0.281C327.729,59.283,327.504,59.189,327.316,59.002z M328.725,67.561h-1.502v-7.137
		h1.502V67.561z"/>
	<path fill="#FFFFFF" d="M333.662,67.668c-0.992,0-1.848-0.338-2.562-1.012c-0.715-0.676-1.072-1.559-1.072-2.65
		c0-1.09,0.373-1.979,1.119-2.662c0.746-0.686,1.656-1.027,2.73-1.027c1.072,0,1.98,0.371,2.723,1.113l-0.885,1.088
		c-0.617-0.537-1.238-0.805-1.865-0.805c-0.625,0-1.17,0.207-1.629,0.623c-0.461,0.416-0.691,0.953-0.691,1.609
		c0,0.658,0.229,1.215,0.684,1.67c0.457,0.457,1.018,0.686,1.684,0.686s1.295-0.305,1.885-0.912l0.887,0.965
		C335.799,67.23,334.797,67.668,333.662,67.668z"/>
	<path fill="#FFFFFF" d="M343.549,67.561h-1.369v-0.951c-0.59,0.705-1.381,1.059-2.373,1.059c-0.744,0-1.357-0.209-1.846-0.631
		c-0.486-0.42-0.73-0.98-0.73-1.684c0-0.701,0.26-1.227,0.777-1.576c0.52-0.348,1.221-0.523,2.107-0.523h1.943v-0.268
		c0-0.947-0.527-1.422-1.582-1.422c-0.662,0-1.35,0.242-2.066,0.725l-0.67-0.939c0.867-0.688,1.852-1.033,2.951-1.033
		c0.84,0,1.527,0.213,2.059,0.639c0.533,0.424,0.799,1.092,0.799,2.004V67.561z M342.047,64.904v-0.604h-1.691
		c-1.082,0-1.623,0.34-1.623,1.02c0,0.35,0.135,0.615,0.402,0.799c0.27,0.184,0.643,0.275,1.121,0.275s0.896-0.135,1.254-0.402
		C341.867,65.723,342.047,65.361,342.047,64.904z"/>
	<path fill="#FFFFFF" d="M347.01,61.631v3.623c0,0.34,0.09,0.609,0.268,0.811c0.18,0.201,0.43,0.303,0.752,0.303
		s0.631-0.156,0.926-0.469l0.617,1.059c-0.527,0.475-1.111,0.711-1.752,0.711c-0.639,0-1.184-0.221-1.635-0.664
		c-0.453-0.441-0.678-1.039-0.678-1.791v-3.582h-0.9v-1.207h0.9v-2.24h1.502v2.24h1.879v1.207H347.01z"/>
	<path fill="#FFFFFF" d="M350.457,59.002c-0.188-0.188-0.281-0.41-0.281-0.67s0.094-0.482,0.281-0.672
		c0.188-0.188,0.412-0.281,0.672-0.281c0.258,0,0.482,0.094,0.67,0.281c0.188,0.189,0.281,0.412,0.281,0.672
		s-0.094,0.482-0.281,0.67s-0.412,0.281-0.67,0.281C350.869,59.283,350.645,59.189,350.457,59.002z M351.865,67.561h-1.502v-7.137
		h1.502V67.561z"/>
	<path fill="#FFFFFF" d="M359.605,66.602c-0.715,0.711-1.609,1.066-2.684,1.066c-1.072,0-1.967-0.355-2.682-1.066
		c-0.717-0.711-1.074-1.58-1.074-2.609c0-1.027,0.357-1.898,1.074-2.609c0.715-0.711,1.609-1.066,2.682-1.066
		c1.074,0,1.969,0.355,2.684,1.066s1.072,1.582,1.072,2.609C360.678,65.021,360.32,65.891,359.605,66.602z M355.307,65.676
		c0.424,0.434,0.963,0.65,1.615,0.65c0.654,0,1.191-0.217,1.617-0.65c0.424-0.434,0.637-0.994,0.637-1.684
		c0-0.688-0.213-1.25-0.637-1.684c-0.426-0.434-0.963-0.65-1.617-0.65c-0.652,0-1.191,0.217-1.615,0.65
		c-0.426,0.434-0.639,0.996-0.639,1.684C354.668,64.682,354.881,65.242,355.307,65.676z"/>
	<path fill="#FFFFFF" d="M363.482,63.697v3.863h-1.502v-7.137h1.502v1.301c0.24-0.438,0.574-0.781,1-1.031
		c0.424-0.252,0.883-0.377,1.375-0.377c0.805,0,1.455,0.246,1.951,0.738s0.744,1.203,0.744,2.133v4.373h-1.502v-3.916
		c0-1.314-0.547-1.973-1.637-1.973c-0.52,0-0.971,0.172-1.355,0.516C363.674,62.533,363.482,63.035,363.482,63.697z"/>
</g>
</svg>
