<?xml version="1.0" encoding="utf-8"?>
<!-- Generator: Adobe Illustrator 16.0.0, SVG Export Plug-In . SVG Version: 6.00 Build 0)  -->
<!DOCTYPE svg PUBLIC "-//W3C//DTD SVG 1.1//EN" "http://www.w3.org/Graphics/SVG/1.1/DTD/svg11.dtd">
<svg version="1.1" id="Layer_1" xmlns="http://www.w3.org/2000/svg" xmlns:xlink="http://www.w3.org/1999/xlink" x="0px" y="0px"
	 width="100px" height="100px" viewBox="0 0 100 100" enable-background="new 0 0 100 100" xml:space="preserve">
<g>
	<path d="M49,1.443c-26.745,0-48.5,21.755-48.5,48.5C0.5,76.75,22.255,98.557,49,98.557c26.744,0,48.5-21.751,48.5-48.499
		C97.5,23.251,75.744,1.443,49,1.443z M49,91.707c-22.965,0-41.648-18.686-41.648-41.649C7.352,27.023,26.035,8.281,49,8.281
		c22.964,0,41.65,18.684,41.65,41.648C90.65,72.965,71.964,91.707,49,91.707z"/>
	<path d="M71.614,47.928c-0.089-0.112-0.177-0.21-0.245-0.278L54.518,30.785c-1.278-1.27-3.546-1.27-4.825,0
		c-1.306,1.306-1.306,3.516,0,4.821l11.085,11.09H27.173c-1.852,0-3.355,1.499-3.355,3.348c0,1.852,1.504,3.361,3.355,3.361h33.609
		L49.569,64.623c-1.306,1.306-1.306,3.519,0.123,4.932c0.534,0.392,1.271,0.848,2.276,0.848c0.68,0,1.57-0.115,2.408-0.958
		l17.062-17.062l0.159-0.171l0.266-0.35c0.007-0.008,0.013-0.018,0.021-0.025l0.309-0.406c0.016-0.032,0.027-0.07,0.039-0.105
		c0.22-0.401,0.344-0.843,0.344-1.309C72.576,49.218,72.206,48.497,71.614,47.928z"/>
</g>
<g>
	<path fill="#FFFFFF" d="M50,0.443c-26.745,0-48.5,21.755-48.5,48.5C1.5,75.75,23.255,97.557,50,97.557
		c26.744,0,48.5-21.751,48.5-48.499C98.5,22.251,76.744,0.443,50,0.443z M50,90.707c-22.965,0-41.648-18.686-41.648-41.649
		C8.352,26.023,27.035,7.281,50,7.281c22.964,0,41.65,18.684,41.65,41.648C91.65,71.965,72.964,90.707,50,90.707z"/>
	<path fill="#FFFFFF" d="M72.614,46.928c-0.089-0.112-0.177-0.21-0.245-0.278L55.518,29.785c-1.278-1.27-3.546-1.27-4.825,0
		c-1.306,1.306-1.306,3.516,0,4.821l11.085,11.09H28.173c-1.852,0-3.355,1.499-3.355,3.348c0,1.852,1.504,3.361,3.355,3.361h33.609
		L50.569,63.623c-1.306,1.306-1.306,3.519,0.123,4.932c0.534,0.392,1.271,0.848,2.276,0.848c0.68,0,1.57-0.115,2.408-0.958
		l17.062-17.062l0.159-0.171l0.266-0.349c0.007-0.009,0.013-0.018,0.021-0.026l0.309-0.406c0.016-0.032,0.027-0.071,0.039-0.105
		c0.22-0.401,0.344-0.843,0.344-1.309C73.576,48.218,73.206,47.497,72.614,46.928z"/>
</g>
</svg>
