<?xml version="1.0" encoding="utf-8"?>
<!-- Generator: Adobe Illustrator 16.0.0, SVG Export Plug-In . SVG Version: 6.00 Build 0)  -->
<!DOCTYPE svg PUBLIC "-//W3C//DTD SVG 1.1//EN" "http://www.w3.org/Graphics/SVG/1.1/DTD/svg11.dtd">
<svg version="1.1" id="Layer_1" xmlns="http://www.w3.org/2000/svg" xmlns:xlink="http://www.w3.org/1999/xlink" x="0px" y="0px"
	 width="50px" height="50px" viewBox="0 0 50 50" enable-background="new 0 0 50 50" xml:space="preserve">
<g>
	<path fill="#FFFFFF" d="M32.801,30.014l-4.885-4.885l4.885-4.885c0.864-0.864,0.864-2.267,0-3.131
		c-0.861-0.861-2.268-0.864-3.131,0l-4.929,4.931l-4.887-4.887c-0.864-0.864-2.268-0.864-3.129,0
		c-0.864,0.861-0.866,2.267-0.004,3.131l4.931,4.929l-4.888,4.887c-0.861,0.862-0.861,2.268,0.002,3.132
		c0.864,0.863,2.27,0.865,3.133,0.002l4.885-4.886l4.926,4.927c0.866,0.864,2.271,0.861,3.134-0.002
		C33.75,32.374,33.728,30.942,32.801,30.014z"/>
	<path fill="#FFFFFF" d="M42.332,7.668c-9.558-9.557-25.107-9.557-34.664,0s-9.557,25.106,0,34.664s25.106,9.558,34.664,0
		S51.89,17.225,42.332,7.668z M10.847,39.152c-7.805-7.805-7.805-20.5,0-28.306c7.802-7.801,20.501-7.805,28.306,0
		c7.807,7.806,7.802,20.505,0,28.306C31.348,46.959,18.653,46.959,10.847,39.152z"/>
</g>
</svg>
